<svg width="49" height="48" viewBox="0 0 49 48" fill="none" xmlns="http://www.w3.org/2000/svg">
<g clip-path="url(#clip0_10_386)">
<path d="M24.5 48C37.7548 48 48.5 37.2548 48.5 24C48.5 10.7452 37.7548 0 24.5 0C11.2452 0 0.5 10.7452 0.5 24C0.5 37.2548 11.2452 48 24.5 48Z" fill="#4CC764"/>
<path d="M40.505 22.602C40.505 15.432 33.317 9.59998 24.4835 9.59998C15.65 9.59998 8.46198 15.4335 8.46198 22.602C8.46198 29.0295 14.162 34.4115 21.8615 35.43C22.3835 35.5425 23.093 35.7735 23.273 36.2205C23.435 36.6255 23.378 37.26 23.3255 37.6695C23.3255 37.6695 23.138 38.8005 23.0975 39.0405C23.027 39.4455 22.775 40.6245 24.485 39.9045C26.195 39.1845 33.7115 34.4715 37.073 30.603C39.395 28.056 40.508 25.473 40.508 22.6035L40.505 22.602Z" fill="white"/>
<path d="M35.1755 26.742C35.345 26.742 35.4815 26.6055 35.4815 26.436V25.299C35.4815 25.131 35.3435 24.993 35.1755 24.993H32.117V23.8125H35.1755C35.345 23.8125 35.4815 23.676 35.4815 23.5065V22.371C35.4815 22.203 35.3435 22.065 35.1755 22.065H32.117V20.8845H35.1755C35.345 20.8845 35.4815 20.748 35.4815 20.5785V19.443C35.4815 19.275 35.3435 19.137 35.1755 19.137H30.674C30.5045 19.137 30.368 19.2735 30.368 19.443V19.449V26.43V26.436C30.368 26.6055 30.5045 26.742 30.674 26.742H35.1755Z" fill="#4CC764"/>
<path d="M18.5255 26.742C18.695 26.742 18.8315 26.6055 18.8315 26.436V25.299C18.8315 25.131 18.6935 24.993 18.5255 24.993H15.467V19.443C15.467 19.275 15.329 19.137 15.161 19.137H14.024C13.8545 19.137 13.718 19.2735 13.718 19.443V26.43V26.436C13.718 26.6055 13.8545 26.742 14.024 26.742H18.5255Z" fill="#4CC764"/>
<path d="M21.2345 19.137H20.099C19.93 19.137 19.793 19.274 19.793 19.443V26.4345C19.793 26.6035 19.93 26.7405 20.099 26.7405H21.2345C21.4035 26.7405 21.5405 26.6035 21.5405 26.4345V19.443C21.5405 19.274 21.4035 19.137 21.2345 19.137Z" fill="#4CC764"/>
<path d="M28.97 19.137H27.833C27.6635 19.137 27.527 19.2735 27.527 19.443V23.5965L24.3275 19.2765C24.32 19.266 24.311 19.2555 24.3035 19.245C24.3035 19.245 24.3035 19.245 24.302 19.2435C24.296 19.2375 24.29 19.23 24.284 19.224C24.2825 19.2225 24.2795 19.221 24.278 19.2195C24.272 19.215 24.2675 19.2105 24.2615 19.206C24.2585 19.2045 24.2555 19.2015 24.2525 19.2C24.248 19.1955 24.242 19.1925 24.236 19.1895C24.233 19.188 24.23 19.185 24.227 19.1835C24.221 19.1805 24.2165 19.1775 24.2105 19.1745C24.2075 19.173 24.2045 19.1715 24.2015 19.17C24.1955 19.167 24.1895 19.164 24.1835 19.1625C24.1805 19.1625 24.1775 19.1595 24.173 19.1595C24.167 19.158 24.161 19.155 24.155 19.1535C24.152 19.1535 24.1475 19.152 24.1445 19.1505C24.1385 19.1505 24.1325 19.1475 24.1265 19.146C24.122 19.146 24.1175 19.146 24.113 19.1445C24.107 19.1445 24.1025 19.143 24.0965 19.143C24.0905 19.143 24.086 19.143 24.08 19.143C24.077 19.143 24.0725 19.143 24.0695 19.143H22.94C22.7705 19.143 22.634 19.2795 22.634 19.449V26.442C22.634 26.6115 22.7705 26.748 22.94 26.748H24.077C24.2465 26.748 24.383 26.6115 24.383 26.442V22.29L27.5855 26.616C27.608 26.6475 27.635 26.673 27.665 26.6925C27.665 26.6925 27.668 26.694 27.668 26.6955C27.674 26.7 27.68 26.703 27.6875 26.7075C27.6905 26.709 27.6935 26.7105 27.6965 26.712C27.701 26.715 27.707 26.7165 27.7115 26.7195C27.716 26.7225 27.722 26.724 27.7265 26.7255C27.7295 26.7255 27.7325 26.7285 27.7355 26.7285C27.743 26.7315 27.749 26.733 27.7565 26.7345C27.7565 26.7345 27.7595 26.7345 27.761 26.7345C27.7865 26.7405 27.8135 26.745 27.8405 26.745H28.97C29.1395 26.745 29.276 26.6085 29.276 26.439V19.446C29.276 19.2765 29.1395 19.14 28.97 19.14V19.137Z" fill="#4CC764"/>
</g>
<defs>
<clipPath id="clip0_10_386">
<rect width="48" height="48" fill="white" transform="translate(0.5)"/>
</clipPath>
</defs>
</svg>
